<svg width="45" height="48" viewBox="0 0 45 48" fill="none" xmlns="http://www.w3.org/2000/svg">
<g filter="url(#filter0_d_7434_2170)">
<path fill-rule="evenodd" clip-rule="evenodd" d="M36.5 14.5C36.5 14.9265 36.4727 15.3476 36.4196 15.7621C36.015 20.0905 32.21 25.8553 24.1569 28.7717C23.836 28.8879 23.5 28.6476 23.5 28.3063V25.9922C23.3341 25.9974 23.1674 26 23 26C15.5442 26 9.5 20.8513 9.5 14.5C9.5 8.14874 15.5442 3 23 3C30.4558 3 36.5 8.14874 36.5 14.5ZM17.5 17C18.6046 17 19.5 16.1046 19.5 15C19.5 13.8954 18.6046 13 17.5 13C16.3954 13 15.5 13.8954 15.5 15C15.5 16.1046 16.3954 17 17.5 17ZM23.5 17C24.6046 17 25.5 16.1046 25.5 15C25.5 13.8954 24.6046 13 23.5 13C22.3954 13 21.5 13.8954 21.5 15C21.5 16.1046 22.3954 17 23.5 17ZM31.5 15C31.5 16.1046 30.6046 17 29.5 17C28.3954 17 27.5 16.1046 27.5 15C27.5 13.8954 28.3954 13 29.5 13C30.6046 13 31.5 13.8954 31.5 15Z" fill="white"/>
<path d="M20.2793 44C19.8809 44 19.6582 43.7773 19.6582 43.4492C19.6582 43.1914 19.7344 43.0508 20.0215 42.7637L22.6641 40.0918C23.7656 38.9668 24.0352 38.5332 24.0352 37.8594C24.0352 37.0566 23.4141 36.4707 22.5645 36.4707C21.7324 36.4707 21.1582 36.8984 20.8652 37.7246C20.748 37.9883 20.5957 38.1465 20.2734 38.1465C19.9043 38.1465 19.6934 37.918 19.6934 37.5898C19.6934 37.4902 19.7051 37.4023 19.7285 37.3145C19.9102 36.4238 20.8887 35.3867 22.5703 35.3867C24.1875 35.3867 25.3301 36.3828 25.3301 37.7773C25.3301 38.7383 24.8789 39.418 23.4551 40.8418L21.4395 42.8633V42.8926H24.9492C25.3066 42.8926 25.5293 43.1152 25.5293 43.4492C25.5293 43.7773 25.3066 44 24.9492 44H20.2793Z" fill="white"/>
</g>
<defs>
<filter id="filter0_d_7434_2170" x="-1" y="0.5" width="49" height="50" filterUnits="userSpaceOnUse" color-interpolation-filters="sRGB">
<feFlood flood-opacity="0" result="BackgroundImageFix"/>
<feColorMatrix in="SourceAlpha" type="matrix" values="0 0 0 0 0 0 0 0 0 0 0 0 0 0 0 0 0 0 127 0" result="hardAlpha"/>
<feOffset dx="1" dy="1.5"/>
<feGaussianBlur stdDeviation="1"/>
<feComposite in2="hardAlpha" operator="out"/>
<feColorMatrix type="matrix" values="0 0 0 0 0 0 0 0 0 0 0 0 0 0 0 0 0 0 0.45 0"/>
<feBlend mode="normal" in2="BackgroundImageFix" result="effect1_dropShadow_7434_2170"/>
<feBlend mode="normal" in="SourceGraphic" in2="effect1_dropShadow_7434_2170" result="shape"/>
</filter>
</defs>
</svg>
