<svg width="45" height="60" viewBox="0 0 45 60" fill="none" xmlns="http://www.w3.org/2000/svg">
<g filter="url(#filter0_d_7434_2184)">
<rect x="3.5" y="1" width="38" height="38" rx="19" fill="#28B18F"/>
<path d="M15.5957 12.4492C17.3535 10.75 19.8047 9.64648 22.5098 9.64648C27.7832 9.64648 32.1094 13.6406 32.7539 18.5625H34.1699C35.0195 18.5625 35.2539 19.2559 34.7266 19.9688L32.1484 23.5332C31.7285 24.0996 31.0645 24.1094 30.6445 23.5332L28.0664 19.9688C27.5488 19.2559 27.793 18.5625 28.623 18.5625H30.1465C29.5312 15.0273 26.416 12.2148 22.5098 12.2148C20.4688 12.2148 18.6133 13.0352 17.2656 14.3438C16.5234 14.9395 15.7715 14.793 15.3516 14.2754C14.9414 13.7871 14.9512 13.0059 15.5957 12.4492ZM10.2637 19.9395L12.8516 16.375C13.2715 15.8086 13.9355 15.7988 14.3457 16.375L16.9336 19.9492C17.4512 20.6621 17.1973 21.3457 16.3672 21.3457H14.873C15.4883 24.8906 18.6035 27.7031 22.5098 27.7031C24.5605 27.7031 26.4258 26.873 27.7637 25.5645C28.5059 24.9688 29.248 25.1055 29.6777 25.6328C30.0781 26.1211 30.0684 26.9023 29.4336 27.4492C27.6758 29.1582 25.2148 30.2715 22.5098 30.2715C17.2363 30.2715 12.9102 26.2676 12.2656 21.3457H10.8203C9.98047 21.3457 9.74609 20.6523 10.2637 19.9395Z" fill="white"/>
<path d="M14.9046 54.0938C14.4945 54.0938 14.2484 53.8359 14.2484 53.4141V46.2246C14.2484 45.8027 14.4945 45.5449 14.9046 45.5449H19.0062C19.3753 45.5449 19.6214 45.7676 19.6214 46.1133C19.6214 46.459 19.3695 46.6816 19.0062 46.6816H15.5609V49.3535H18.6956C19.0472 49.3535 19.2874 49.5703 19.2874 49.9043C19.2874 50.2441 19.0472 50.4609 18.6956 50.4609H15.5609V53.4141C15.5609 53.8359 15.3089 54.0938 14.9046 54.0938ZM21.0776 54.1113C20.7084 54.1113 20.4448 53.8594 20.4448 53.4434V46.1016C20.4448 45.6855 20.7084 45.4336 21.0776 45.4336C21.4467 45.4336 21.7104 45.6855 21.7104 46.1016V53.4434C21.7104 53.8594 21.4467 54.1113 21.0776 54.1113ZM23.565 46.9043C23.1607 46.9043 22.8326 46.5762 22.8326 46.1777C22.8326 45.7734 23.1607 45.457 23.565 45.457C23.9752 45.457 24.3033 45.7734 24.3033 46.1777C24.3033 46.5762 23.9752 46.9043 23.565 46.9043ZM23.565 54.1113C23.1841 54.1113 22.9322 53.8477 22.9322 53.4434V48.3984C22.9322 47.9883 23.1841 47.7246 23.565 47.7246C23.9459 47.7246 24.1978 47.9883 24.1978 48.3984V53.4434C24.1978 53.8477 23.9459 54.1113 23.565 54.1113ZM26.0055 56.1855C25.6305 56.1855 25.3727 55.9277 25.3727 55.5117V48.375C25.3727 47.9707 25.6247 47.7246 25.9821 47.7246C26.3395 47.7246 26.5973 47.9707 26.5973 48.375V48.8965H26.6208C26.9841 48.1875 27.693 47.7363 28.5837 47.7363C30.1481 47.7363 31.1794 48.9668 31.1794 50.918C31.1794 52.8691 30.154 54.1055 28.6071 54.1055C27.7223 54.1055 27.0192 53.6719 26.6677 52.9863H26.6384V55.5117C26.6384 55.9277 26.3747 56.1855 26.0055 56.1855ZM28.2497 53.0332C29.2516 53.0332 29.8786 52.2129 29.8786 50.918C29.8786 49.6289 29.2516 48.8027 28.2497 48.8027C27.2829 48.8027 26.6325 49.6465 26.6325 50.918C26.6325 52.2012 27.277 53.0332 28.2497 53.0332Z" fill="white"/>
</g>
<defs>
<filter id="filter0_d_7434_2184" x="-1" y="0.5" width="49" height="60" filterUnits="userSpaceOnUse" color-interpolation-filters="sRGB">
<feFlood flood-opacity="0" result="BackgroundImageFix"/>
<feColorMatrix in="SourceAlpha" type="matrix" values="0 0 0 0 0 0 0 0 0 0 0 0 0 0 0 0 0 0 127 0" result="hardAlpha"/>
<feOffset dx="1" dy="1.5"/>
<feGaussianBlur stdDeviation="1"/>
<feComposite in2="hardAlpha" operator="out"/>
<feColorMatrix type="matrix" values="0 0 0 0 0 0 0 0 0 0 0 0 0 0 0 0 0 0 0.45 0"/>
<feBlend mode="normal" in2="BackgroundImageFix" result="effect1_dropShadow_7434_2184"/>
<feBlend mode="normal" in="SourceGraphic" in2="effect1_dropShadow_7434_2184" result="shape"/>
</filter>
</defs>
</svg>
