<svg width="45" height="48" viewBox="0 0 45 48" fill="none" xmlns="http://www.w3.org/2000/svg">
<g filter="url(#filter0_d_7434_2166)">
<path d="M36.5 10.9918C36.5 19.4448 28.05 25.9693 24.2796 28.4599C23.1881 29.1808 21.8123 29.1799 20.7215 28.4579C16.9517 25.9625 8.5 19.4274 8.5 10.9918C8.5 9.31449 9.01362 7.67966 9.96812 6.31893C10.9226 4.95819 12.2696 3.94054 13.8182 3.41012C15.3669 2.87969 17.0387 2.86339 18.5969 3.36352C20.155 3.86365 21.5205 4.85486 22.5 6.19674C23.4795 4.85486 24.845 3.86365 26.4031 3.36352C27.9613 2.86339 29.6331 2.87969 31.1818 3.41012C32.7304 3.94054 34.0774 4.95819 35.0319 6.31893C35.9864 7.67966 36.5 9.31449 36.5 10.9918Z" fill="white"/>
<path d="M19.2202 44.1582C17.3452 44.1582 16.0209 43.1445 16.0209 41.7148C16.0209 40.6367 16.7827 39.7871 17.8959 39.5469V39.5176C16.9409 39.248 16.3256 38.5273 16.3256 37.6309C16.3256 36.3359 17.5444 35.3867 19.2202 35.3867C20.9018 35.3867 22.103 36.3301 22.103 37.6367C22.103 38.5215 21.4995 39.2363 20.5444 39.5176V39.5469C21.6577 39.793 22.4194 40.6426 22.4194 41.7148C22.4194 43.1504 21.0893 44.1582 19.2202 44.1582ZM19.2202 39.0781C20.1459 39.0781 20.808 38.5273 20.808 37.7539C20.808 36.9746 20.1518 36.4297 19.2202 36.4297C18.2827 36.4297 17.6323 36.9746 17.6323 37.7539C17.6323 38.5273 18.2827 39.0781 19.2202 39.0781ZM19.2202 43.1035C20.2983 43.1035 21.06 42.4824 21.06 41.6211C21.06 40.748 20.2983 40.1328 19.2202 40.1328C18.142 40.1328 17.3745 40.7539 17.3745 41.6211C17.3745 42.4824 18.142 43.1035 19.2202 43.1035ZM24.7838 44.1113C24.4205 44.1113 24.1802 43.8887 24.1802 43.5781C24.1802 43.4258 24.2154 43.3145 24.2974 43.1562L27.6959 36.6816V36.6523H23.7584C23.4185 36.6523 23.1724 36.4355 23.1724 36.0957C23.1724 35.7617 23.4185 35.5449 23.7584 35.5449H28.2408C28.733 35.5449 29.0435 35.8262 29.0435 36.3008C29.0435 36.5469 28.9615 36.752 28.7798 37.1094L25.3755 43.7305C25.2349 44.0059 25.0709 44.1113 24.7838 44.1113Z" fill="white"/>
</g>
<defs>
<filter id="filter0_d_7434_2166" x="-1" y="0.5" width="49" height="50" filterUnits="userSpaceOnUse" color-interpolation-filters="sRGB">
<feFlood flood-opacity="0" result="BackgroundImageFix"/>
<feColorMatrix in="SourceAlpha" type="matrix" values="0 0 0 0 0 0 0 0 0 0 0 0 0 0 0 0 0 0 127 0" result="hardAlpha"/>
<feOffset dx="1" dy="1.5"/>
<feGaussianBlur stdDeviation="1"/>
<feComposite in2="hardAlpha" operator="out"/>
<feColorMatrix type="matrix" values="0 0 0 0 0 0 0 0 0 0 0 0 0 0 0 0 0 0 0.45 0"/>
<feBlend mode="normal" in2="BackgroundImageFix" result="effect1_dropShadow_7434_2166"/>
<feBlend mode="normal" in="SourceGraphic" in2="effect1_dropShadow_7434_2166" result="shape"/>
</filter>
</defs>
</svg>
