<svg width="91" height="100" viewBox="0 0 91 100" fill="none" xmlns="http://www.w3.org/2000/svg">
<g filter="url(#filter0_d_1642_4499)">
<g filter="url(#filter1_d_1642_4499)">
<path d="M48.4877 73.0888C50.9234 70.6132 55.218 66.0393 58.9136 61.009C60.761 58.4943 62.4818 55.8345 63.746 53.2419C64.9997 50.671 65.8636 48.0473 65.8636 45.6364C65.8636 34.3898 56.7466 25.2727 45.5 25.2727C34.2535 25.2727 25.1364 34.3898 25.1364 45.6364C25.1364 48.0473 26.0003 50.671 27.254 53.2419C28.5182 55.8345 30.239 58.4943 32.0864 61.009C35.782 66.0393 40.0766 70.6132 42.5123 73.0887C44.1664 74.77 46.8336 74.77 48.4877 73.0888Z" fill="white" stroke="#99D6FF" stroke-width="2.90909" stroke-linecap="round"/>
<path d="M45.5 48.9091C46.3034 48.9091 46.9546 48.2579 46.9546 47.4545C46.9546 46.6512 46.3034 46 45.5 46C44.6967 46 44.0455 46.6512 44.0455 47.4545C44.0455 48.2579 44.6967 48.9091 45.5 48.9091Z" fill="#006FBA"/>
<path d="M45.5 64.9091L44.4995 65.9648L45.5 66.9131L46.5006 65.9648L45.5 64.9091ZM55.6818 47.4545C55.6818 48.6786 55.1067 50.3039 54.0507 52.1794C53.0167 54.016 51.6189 55.9249 50.1918 57.6715C48.7692 59.4125 47.3427 60.9617 46.2698 62.0773C45.7342 62.6342 45.2886 63.0811 44.9782 63.3875C44.823 63.5407 44.7017 63.6587 44.62 63.7376C44.5792 63.777 44.5483 63.8067 44.5279 63.8262C44.5178 63.8359 44.5102 63.8431 44.5055 63.8476C44.5031 63.8499 44.5014 63.8515 44.5004 63.8525C44.4999 63.8529 44.4995 63.8533 44.4994 63.8534C44.4993 63.8535 44.4993 63.8535 44.4993 63.8535C44.4994 63.8534 44.4995 63.8533 45.5 64.9091C46.5006 65.9648 46.5008 65.9647 46.501 65.9644C46.5011 65.9643 46.5014 65.964 46.5017 65.9638C46.5022 65.9632 46.503 65.9625 46.5039 65.9617C46.5057 65.96 46.5082 65.9576 46.5114 65.9545C46.5178 65.9484 46.527 65.9397 46.5389 65.9283C46.5626 65.9056 46.597 65.8726 46.6413 65.8298C46.7301 65.744 46.8588 65.6187 47.0219 65.4578C47.3478 65.136 47.8113 64.6712 48.3666 64.0938C49.4755 62.9408 50.9581 61.3314 52.4445 59.5121C53.9265 57.6984 55.4379 55.6453 56.5857 53.6066C57.7115 51.607 58.5909 49.4438 58.5909 47.4545H55.6818ZM45.5 64.9091C46.5006 63.8533 46.5007 63.8534 46.5007 63.8535C46.5007 63.8535 46.5007 63.8535 46.5006 63.8534C46.5005 63.8533 46.5001 63.8529 46.4996 63.8525C46.4986 63.8515 46.4969 63.8499 46.4946 63.8476C46.4898 63.8431 46.4823 63.8359 46.4721 63.8262C46.4518 63.8067 46.4208 63.777 46.38 63.7376C46.2983 63.6587 46.177 63.5407 46.0219 63.3875C45.7115 63.0811 45.2659 62.6342 44.7302 62.0773C43.6573 60.9617 42.2308 59.4125 40.8082 57.6715C39.3811 55.9249 37.9833 54.016 36.9493 52.1794C35.8933 50.3039 35.3182 48.6786 35.3182 47.4545H32.4091C32.4091 49.4438 33.2885 51.607 34.4144 53.6066C35.5622 55.6453 37.0735 57.6984 38.5555 59.5121C40.042 61.3314 41.5245 62.9408 42.6335 64.0938C43.1887 64.6712 43.6522 65.136 43.9782 65.4578C44.1412 65.6187 44.2699 65.744 44.3587 65.8298C44.4031 65.8726 44.4375 65.9056 44.4612 65.9283C44.473 65.9397 44.4822 65.9484 44.4886 65.9545C44.4918 65.9576 44.4943 65.96 44.4961 65.9617C44.497 65.9625 44.4978 65.9632 44.4983 65.9638C44.4986 65.964 44.4989 65.9643 44.499 65.9644C44.4993 65.9647 44.4995 65.9648 45.5 64.9091ZM35.3182 47.4545C35.3182 41.8313 39.8767 37.2727 45.5 37.2727V34.3636C38.2701 34.3636 32.4091 40.2246 32.4091 47.4545H35.3182ZM45.5 37.2727C51.1233 37.2727 55.6818 41.8313 55.6818 47.4545H58.5909C58.5909 40.2246 52.73 34.3636 45.5 34.3636V37.2727ZM45.5 50.3636C47.1067 50.3636 48.4091 49.0612 48.4091 47.4545H45.5V50.3636ZM48.4091 47.4545C48.4091 45.8479 47.1067 44.5454 45.5 44.5454V47.4545H48.4091ZM45.5 44.5454C43.8933 44.5454 42.5909 45.8479 42.5909 47.4545H45.5V44.5454ZM42.5909 47.4545C42.5909 49.0612 43.8933 50.3636 45.5 50.3636V47.4545H42.5909Z" fill="#006FBA"/>
</g>
</g>
<defs>
<filter id="filter0_d_1642_4499" x="-9.77273" y="-5.27273" width="110.545" height="110.545" filterUnits="userSpaceOnUse" color-interpolation-filters="sRGB">
<feFlood flood-opacity="0" result="BackgroundImageFix"/>
<feColorMatrix in="SourceAlpha" type="matrix" values="0 0 0 0 0 0 0 0 0 0 0 0 0 0 0 0 0 0 127 0" result="hardAlpha"/>
<feOffset/>
<feGaussianBlur stdDeviation="11.6364"/>
<feComposite in2="hardAlpha" operator="out"/>
<feColorMatrix type="matrix" values="0 0 0 0 0 0 0 0 0 0 0 0 0 0 0 0 0 0 0.15 0"/>
<feBlend mode="normal" in2="BackgroundImageFix" result="effect1_dropShadow_1642_4499"/>
<feBlend mode="normal" in="SourceGraphic" in2="effect1_dropShadow_1642_4499" result="shape"/>
</filter>
<filter id="filter1_d_1642_4499" x="16.8247" y="19.2467" width="57.3506" height="65.7003" filterUnits="userSpaceOnUse" color-interpolation-filters="sRGB">
<feFlood flood-opacity="0" result="BackgroundImageFix"/>
<feColorMatrix in="SourceAlpha" type="matrix" values="0 0 0 0 0 0 0 0 0 0 0 0 0 0 0 0 0 0 127 0" result="hardAlpha"/>
<feOffset dy="2.28571"/>
<feGaussianBlur stdDeviation="3.42857"/>
<feComposite in2="hardAlpha" operator="out"/>
<feColorMatrix type="matrix" values="0 0 0 0 0 0 0 0 0 0 0 0 0 0 0 0 0 0 0.24 0"/>
<feBlend mode="normal" in2="BackgroundImageFix" result="effect1_dropShadow_1642_4499"/>
<feBlend mode="normal" in="SourceGraphic" in2="effect1_dropShadow_1642_4499" result="shape"/>
</filter>
</defs>
</svg>
