<svg width="24" height="25" viewBox="0 0 24 25" fill="none" xmlns="http://www.w3.org/2000/svg">
<path d="M9 8.51236L9.0125 8.49847M14 8.51236L14.0125 8.49847M9 13.5123L9.0125 13.4985M14 13.5123L14.0125 13.4985M9 18.5124L9.0125 18.4985M14 18.5124L14.0125 18.4985M4 22.75V4.25C4 3.83579 4.33579 3.5 4.75 3.5H11.5V1.75C11.5 1.33579 11.8358 1 12.25 1H18.25C18.6642 1 19 1.33579 19 1.75V22.75C19 23.1642 18.6642 23.5 18.25 23.5H4.75C4.33579 23.5 4 23.1642 4 22.75Z" stroke="#005B99" stroke-width="1.875" stroke-linecap="round" stroke-linejoin="round"/>
</svg>
