<svg width="24" height="24" viewBox="0 0 24 24" fill="none" xmlns="http://www.w3.org/2000/svg">
<path d="M16.125 3.75V4.125H16.5H18.7494C19.0476 4.12603 19.3333 4.24494 19.5442 4.45582C19.755 4.66667 19.874 4.95235 19.875 5.25053C19.875 5.25073 19.875 5.25092 19.875 5.25112L19.875 13.125H19.125V5.25V4.875H18.75H16.5H16.125V5.25V7.125H7.875V5.25V4.875H7.5H5.25H4.875V5.25V21V21.375H5.25H11.625V22.125L5.25112 22.125C5.25092 22.125 5.25073 22.125 5.25053 22.125C4.95235 22.124 4.66667 22.005 4.45582 21.7942C4.24494 21.5833 4.12603 21.2976 4.125 20.9994V5.2506C4.12603 4.9524 4.24494 4.66669 4.45582 4.45582C4.66669 4.24494 4.9524 4.12603 5.2506 4.125H7.5H7.875V3.75V3.00053C7.87605 2.70235 7.99496 2.41667 8.20582 2.20582C8.41669 1.99494 8.7024 1.87603 9.0006 1.875H14.9994C15.2976 1.87603 15.5833 1.99494 15.7942 2.20582C16.005 2.41667 16.124 2.70235 16.125 3.00053V3.75ZM15 6.375H15.375V6V3V2.625H15H9H8.625V3V6V6.375H9H15Z" fill="#006FBA" stroke="#005B99" stroke-width="0.75"/>
<path d="M16.5 20.3849L14.5575 18.4424L13.5 19.4999L16.5 22.4999L22.5 16.4999L21.4425 15.4424L16.5 20.3849Z" fill="#006FBA"/>
</svg>
