<svg width="26" height="26" viewBox="0 0 26 26" fill="none" xmlns="http://www.w3.org/2000/svg">
<path d="M13 15.4C14.3255 15.4 15.4 14.3255 15.4 13C15.4 11.6745 14.3255 10.6 13 10.6C11.6745 10.6 10.6 11.6745 10.6 13C10.6 14.3255 11.6745 15.4 13 15.4Z" stroke="#005B99" stroke-width="1.5" stroke-linecap="round" stroke-linejoin="round"/>
<path d="M19.0979 11.7163L18.2198 9.59584L19.4 8.2L17.8 6.6L16.4118 7.78636L14.2462 6.89579L13.7482 5H12.1848L11.6793 6.9209L9.56353 7.81277L8.2 6.6L6.6 8.2L7.7627 9.63108L6.898 11.757L5 12.2V13.8L6.92089 14.3244L7.8126 16.4398L6.6 17.8L8.2 19.4L9.63293 18.2322L11.7176 19.0898L12.2 21H13.8L14.2836 19.0906L16.4041 18.2124C16.7575 18.465 17.8 19.4 17.8 19.4L19.4 17.8L18.2127 16.3995L19.0911 14.2784L20.9999 13.7818L21 12.2L19.0979 11.7163Z" stroke="#005B99" stroke-width="1.5" stroke-linecap="round" stroke-linejoin="round"/>
<rect x="1.25" y="1.25" width="23.5" height="23.5" rx="4.75" stroke="#005B99" stroke-width="1.5"/>
</svg>
