<svg width="24" height="24" viewBox="0 0 24 24" fill="none" xmlns="http://www.w3.org/2000/svg">
<path d="M12 15.3C13.8226 15.3 15.3 13.8226 15.3 12C15.3 10.1774 13.8226 8.7 12 8.7C10.1774 8.7 8.7 10.1774 8.7 12C8.7 13.8226 10.1774 15.3 12 15.3Z" stroke="#005B99" stroke-width="1.65" stroke-linecap="round" stroke-linejoin="round"/>
<path d="M20.3846 10.2349L19.1772 7.31928L20.8 5.4L18.6 3.2L16.6912 4.83124L13.7136 3.60671L13.0288 1H10.8791L10.184 3.64124L7.27485 4.86756L5.4 3.2L3.2 5.4L4.79871 7.36773L3.60975 10.2909L1 10.9V13.1L3.64122 13.821L4.86732 16.7297L3.2 18.6L5.4 20.8L7.37028 19.1943L10.2367 20.3735L10.9 23H13.1L13.7649 20.3745L16.6806 19.167C17.1666 19.5144 18.6 20.8 18.6 20.8L20.8 18.6L19.1675 16.6743L20.3753 13.7578L22.9999 13.0749L23 10.9L20.3846 10.2349Z" stroke="#005B99" stroke-width="1.65" stroke-linecap="round" stroke-linejoin="round"/>
</svg>
