<svg width="25" height="16" viewBox="0 0 25 16" fill="none" xmlns="http://www.w3.org/2000/svg">
<g clip-path="url(#clip0_26_73426)">
<path d="M5.8645 0H19.1323V16H5.86454L5.8645 0Z" fill="white"/>
<path d="M-0.767578 0H5.86449V16H-0.767578V0ZM19.1323 0H25.7644V16H19.136L19.1323 0ZM7.85305 7.73127L7.33301 7.88127L9.73168 9.67813C9.9148 10.1375 9.66945 10.2719 9.51195 10.5156L12.1121 10.2344L12.0498 12.4687L12.5918 12.4562L12.4709 10.2375L15.0784 10.5031C14.9172 10.2125 14.7744 10.0594 14.9209 9.59687L17.3159 7.89373L16.8984 7.7625C16.5542 7.5375 17.0449 6.67813 17.1182 6.13437C17.1182 6.13437 15.7229 6.54373 15.6313 6.32813L15.2725 5.74377L14.0017 6.9375C13.8625 6.96563 13.8039 6.91873 13.771 6.81873L14.357 4.325L13.4268 4.77187C13.3498 4.80313 13.2729 4.77813 13.2217 4.7L12.3245 3.16873L11.4016 4.7594C11.332 4.81563 11.2625 4.82187 11.2039 4.7844L10.3176 4.3594L10.8523 6.83123C10.8084 6.93123 10.7058 6.95623 10.5886 6.90313L9.36914 5.725C9.21168 5.94377 9.10547 6.29687 8.89308 6.37813C8.68433 6.45313 7.97754 6.22813 7.50512 6.14063C7.66625 6.6375 8.17164 7.4625 7.85305 7.73437V7.73127Z" fill="#D52B1E"/>
</g>
<defs>
<clipPath id="clip0_26_73426">
<rect width="25" height="16" fill="white"/>
</clipPath>
</defs>
</svg>
