<svg width="24" height="24" viewBox="0 0 24 24" fill="none" xmlns="http://www.w3.org/2000/svg">
<path fill-rule="evenodd" clip-rule="evenodd" d="M12.4964 2.50492C11.2497 2.50492 10.239 3.51558 10.239 4.7623V10.782C10.239 12.0287 11.2497 13.0394 12.4964 13.0394C13.7431 13.0394 14.7538 12.0287 14.7538 10.782V4.7623C14.7538 3.51558 13.7431 2.50492 12.4964 2.50492ZM8.73411 4.7623C8.73411 2.68444 10.4185 1 12.4964 1C14.5743 1 16.2587 2.68444 16.2587 4.7623V10.782C16.2587 12.8598 14.5743 14.5443 12.4964 14.5443C10.4185 14.5443 8.73411 12.8598 8.73411 10.782V4.7623ZM5.47341 9.02632C5.88898 9.02632 6.22587 9.36321 6.22587 9.77878V10.7821C6.22587 14.2452 9.03327 17.0526 12.4964 17.0526C15.9595 17.0526 18.7669 14.2452 18.7669 10.7821V9.77878C18.7669 9.36321 19.1038 9.02632 19.5193 9.02632C19.9349 9.02632 20.2718 9.36321 20.2718 9.77878V10.7821C20.2718 14.8225 17.19 18.1431 13.2489 18.5215V21.0658H15.5062C15.9218 21.0658 16.2587 21.4027 16.2587 21.8182C16.2587 22.2338 15.9218 22.5707 15.5062 22.5707H12.4964H9.48657C9.071 22.5707 8.73411 22.2338 8.73411 21.8182C8.73411 21.4027 9.071 21.0658 9.48657 21.0658H11.7439V18.5215C7.80275 18.1431 4.72095 14.8225 4.72095 10.7821V9.77878C4.72095 9.36321 5.05784 9.02632 5.47341 9.02632Z" />
</svg>
