<svg width="24" height="24" viewBox="0 0 24 24" fill="none" xmlns="http://www.w3.org/2000/svg">
<path d="M15.3748 11.625C15.9665 11.6246 16.5498 11.7642 17.0771 12.0326C17.6045 12.3009 18.0607 12.6903 18.4086 13.169C18.7565 13.6476 18.9861 14.2018 19.0786 14.7862C19.1711 15.3704 19.1239 15.9683 18.941 16.5308C18.941 16.531 18.9409 16.5311 18.9409 16.5313L18.8705 16.7495L22.4349 20.3145L15.3748 11.625ZM15.3748 11.625C15.305 11.625 15.2355 11.627 15.1664 11.6309L14.33 11.6781L14.9223 12.2704L16.3263 13.6744C16.3263 13.6744 16.3263 13.6744 16.3263 13.6744C16.6778 14.026 16.8753 14.5029 16.8753 15C16.8753 15.4957 16.679 15.9712 16.3294 16.3226C15.9709 16.6633 15.4951 16.8534 15.0004 16.8534C14.5056 16.8534 14.0297 16.6633 13.6712 16.3224L12.2704 14.9216L11.6777 14.3289L11.6308 15.1658C11.6269 15.2353 11.625 15.3051 11.625 15.375H11.817L11.7401 15.4519L12.0185 15.7303C12.0615 16.1397 12.1792 16.5387 12.3668 16.9073C12.6084 17.382 12.9589 17.7927 13.3897 18.1058C13.8204 18.419 14.3193 18.6256 14.8453 18.7089L15.3748 11.625ZM16.532 18.9416C16.5319 18.9416 16.5319 18.9417 16.5318 18.9417C15.9691 19.1247 15.3711 19.1718 14.7866 19.0793C14.2021 18.9868 13.6478 18.7571 13.1692 18.4091C12.6905 18.0612 12.301 17.6048 12.0326 17.0774C11.7642 16.55 11.6245 15.9665 11.625 15.3747L11.8171 15.3749L12.0052 15.1868L12.3797 15.2077C12.3766 15.2632 12.375 15.319 12.375 15.375V15.3753C12.375 15.4378 12.3769 15.5001 12.3807 15.5622L13.4092 16.5908C13.8379 17 14.4077 17.2284 15.0004 17.2284C15.593 17.2284 16.1629 17 16.5915 16.5908C17.0133 16.1688 17.2503 15.5966 17.2503 15C17.2503 14.4034 17.0133 13.8312 16.5915 13.4093L15.563 12.3807C15.5006 12.3769 15.438 12.375 15.3753 12.375L15.375 12.375C15.3189 12.375 15.2635 12.3766 15.2086 12.3797L16.532 18.9416ZM16.532 18.9416L16.7498 18.8709L20.3148 22.4359L20.3148 22.436L20.321 22.442C20.605 22.7131 20.9824 22.8643 21.375 22.8643C21.7676 22.8643 22.145 22.7131 22.429 22.442L22.429 22.4421L22.4349 22.4362C22.5744 22.2971 22.6851 22.1317 22.7606 21.9497C22.8361 21.7676 22.875 21.5725 22.875 21.3754C22.875 21.1783 22.8361 20.9832 22.7606 20.8011C22.6851 20.6192 22.5746 20.454 22.4352 20.3149L16.532 18.9416ZM21.375 23.625L21.3739 23.625C21.0786 23.6259 20.7861 23.5682 20.5133 23.4552C20.2405 23.3422 19.9929 23.1762 19.7847 22.9668L19.7839 22.9661L16.6879 19.8701L16.5426 19.7248L16.3419 19.7691C15.531 19.9481 14.6863 19.8992 13.9015 19.6275C13.1167 19.3559 12.4224 18.8723 11.8957 18.2303C11.3689 17.5882 11.0302 16.8129 10.9172 15.9901C10.8041 15.1674 10.9211 14.3294 11.2551 13.5691L11.2551 13.569L11.4756 13.0665L14.2046 15.7954L14.2045 15.7955L14.2108 15.8015C14.4233 16.0044 14.7058 16.1176 14.9996 16.1176C15.2935 16.1176 15.576 16.0044 15.7885 15.8015L15.7885 15.8015L15.7943 15.7958C15.8989 15.6915 15.982 15.5675 16.0387 15.4311C16.0954 15.2946 16.1247 15.1482 16.1248 15.0004C16.1249 14.8526 16.0958 14.7063 16.0393 14.5697C15.9828 14.4332 15.8999 14.3091 15.7954 14.2046C15.7954 14.2046 15.7954 14.2046 15.7954 14.2046L13.0664 11.4749L13.5689 11.2544L13.569 11.2544C14.3294 10.9206 15.1674 10.8038 15.9901 10.917C16.8128 11.0302 17.5881 11.369 18.2301 11.8958C18.8721 12.4225 19.3557 13.1168 19.6273 13.9016C19.899 14.6864 19.948 15.531 19.7691 16.342L19.7248 16.5426L19.8701 16.6879L22.9661 19.7839L22.9661 19.7839C23.2808 20.0986 23.4951 20.4995 23.5819 20.936C23.6688 21.3725 23.6242 21.8249 23.4539 22.2361C23.2836 22.6472 22.9952 22.9986 22.6251 23.2459C22.2551 23.4931 21.8201 23.625 21.375 23.625Z" stroke-width="0.75"/>
<path d="M18.75 3.75H16.5V3C16.4988 2.60254 16.3404 2.2217 16.0593 1.94065C15.7783 1.6596 15.3975 1.50119 15 1.5H9C8.60254 1.50119 8.2217 1.6596 7.94065 1.94065C7.6596 2.2217 7.50119 2.60254 7.5 3V3.75H5.25C4.85254 3.75119 4.4717 3.9096 4.19065 4.19065C3.9096 4.4717 3.75119 4.85254 3.75 5.25V21C3.75119 21.3975 3.9096 21.7783 4.19065 22.0593C4.4717 22.3404 4.85254 22.4988 5.25 22.5H10.5V21H5.25V5.25H7.5V7.5H16.5V5.25H18.75V9H20.25V5.25C20.2488 4.85254 20.0904 4.4717 19.8093 4.19065C19.5283 3.9096 19.1475 3.75119 18.75 3.75ZM15 6H9V3H15V6Z" />
</svg>
