<svg width="24" height="24" viewBox="0 0 24 24" fill="none" xmlns="http://www.w3.org/2000/svg">
<path d="M12 11C12.5523 11 13 10.5523 13 10C13 9.44772 12.5523 9 12 9C11.4477 9 11 9.44772 11 10C11 10.5523 11.4477 11 12 11Z" />
<path d="M12 22L11.4841 22.5444L12 23.0333L12.5159 22.5444L12 22ZM19.25 10C19.25 10.9073 18.8284 12.0709 18.0965 13.371C17.3758 14.651 16.4051 15.9758 15.4192 17.1823C14.4357 18.386 13.4501 19.4563 12.7094 20.2264C12.3395 20.6111 12.0316 20.9199 11.8169 21.1318C11.7095 21.2378 11.6255 21.3195 11.5687 21.3744C11.5403 21.4018 11.5188 21.4225 11.5045 21.4362C11.4974 21.443 11.4921 21.448 11.4886 21.4513C11.4869 21.4529 11.4857 21.4541 11.4849 21.4548C11.4845 21.4552 11.4843 21.4554 11.4841 21.4556C11.4841 21.4556 11.4841 21.4557 11.484 21.4557C11.484 21.4557 11.4841 21.4556 12 22C12.5159 22.5444 12.516 22.5443 12.5162 22.5441C12.5162 22.5441 12.5164 22.5439 12.5166 22.5437C12.5169 22.5434 12.5174 22.543 12.518 22.5424C12.5192 22.5413 12.5208 22.5397 12.523 22.5377C12.5272 22.5336 12.5334 22.5277 12.5414 22.5201C12.5574 22.5048 12.5807 22.4823 12.611 22.4532C12.6714 22.3948 12.7592 22.3093 12.8706 22.1993C13.0934 21.9794 13.4105 21.6614 13.7906 21.2662C14.5499 20.4767 15.5643 19.3754 16.5808 18.1314C17.5949 16.8902 18.6242 15.4911 19.4035 14.1069C20.1716 12.7428 20.75 11.3018 20.75 10H19.25ZM12 22C12.5159 21.4556 12.516 21.4557 12.516 21.4557C12.5159 21.4557 12.5159 21.4556 12.5159 21.4556C12.5157 21.4554 12.5155 21.4552 12.5151 21.4548C12.5143 21.4541 12.5131 21.4529 12.5114 21.4513C12.5079 21.448 12.5026 21.443 12.4955 21.4362C12.4812 21.4225 12.4597 21.4018 12.4313 21.3744C12.3745 21.3195 12.2905 21.2378 12.1831 21.1318C11.9684 20.9199 11.6605 20.6111 11.2906 20.2264C10.5499 19.4563 9.56431 18.386 8.58078 17.1823C7.59493 15.9758 6.6242 14.651 5.90354 13.371C5.17155 12.0709 4.75 10.9073 4.75 10H3.25C3.25 11.3018 3.82845 12.7428 4.59646 14.1069C5.3758 15.4911 6.40507 16.8902 7.41922 18.1314C8.43569 19.3754 9.45014 20.4767 10.2094 21.2662C10.5895 21.6614 10.9066 21.9794 11.1294 22.1993C11.2408 22.3093 11.3286 22.3948 11.389 22.4532C11.4193 22.4823 11.4426 22.5048 11.4586 22.5201C11.4666 22.5277 11.4728 22.5336 11.477 22.5377C11.4792 22.5397 11.4808 22.5413 11.482 22.5424C11.4826 22.543 11.4831 22.5434 11.4834 22.5437C11.4836 22.5439 11.4838 22.5441 11.4838 22.5441C11.484 22.5443 11.4841 22.5444 12 22ZM4.75 10C4.75 5.99593 7.99593 2.75 12 2.75V1.25C7.16751 1.25 3.25 5.16751 3.25 10H4.75ZM12 2.75C16.0041 2.75 19.25 5.99593 19.25 10H20.75C20.75 5.16751 16.8325 1.25 12 1.25V2.75ZM12 11.75C12.9665 11.75 13.75 10.9665 13.75 10H12.25C12.25 10.1381 12.1381 10.25 12 10.25V11.75ZM13.75 10C13.75 9.03352 12.9665 8.25 12 8.25V9.75C12.1381 9.75 12.25 9.86192 12.25 10H13.75ZM12 8.25C11.0335 8.25 10.25 9.03352 10.25 10H11.75C11.75 9.86192 11.8619 9.75 12 9.75V8.25ZM10.25 10C10.25 10.9665 11.0335 11.75 12 11.75V10.25C11.8619 10.25 11.75 10.1381 11.75 10H10.25Z" />
</svg>
