<svg width="45" height="48" viewBox="0 0 45 48" fill="none" xmlns="http://www.w3.org/2000/svg">
<g filter="url(#filter0_d_7434_2178)">
<path fill-rule="evenodd" clip-rule="evenodd" d="M24.1193 3.2949C23.4893 2.66493 22.4122 3.1111 22.4122 4.002V9.58779C16.5957 10.4933 10.3274 13.0869 9.50334 24.0559C9.43541 24.9601 10.4196 25.3127 11.0701 24.6811C12.7136 23.0852 15.7504 21.2449 22.4122 21.2449V27.1736C22.4122 28.0645 23.4893 28.5107 24.1193 27.8807L34.998 17.002C35.779 16.221 35.779 14.9546 34.998 14.1736L24.1193 3.2949Z" fill="white"/>
<path d="M19.9116 44.1113C19.5307 44.1113 19.267 43.8418 19.267 43.4434V36.875H19.2377L17.7787 37.8945C17.6498 37.9883 17.5327 38.0293 17.3862 38.0293C17.0991 38.0293 16.894 37.8242 16.894 37.5254C16.894 37.3086 16.976 37.1562 17.2221 36.9863L18.9799 35.7383C19.3373 35.4863 19.5307 35.4336 19.812 35.4336C20.2748 35.4336 20.5502 35.709 20.5502 36.166V43.4434C20.5502 43.8418 20.2866 44.1113 19.9116 44.1113ZM23.817 44.1113C23.4537 44.1113 23.2134 43.8887 23.2134 43.5781C23.2134 43.4258 23.2486 43.3145 23.3306 43.1562L26.7291 36.6816V36.6523H22.7916C22.4517 36.6523 22.2056 36.4355 22.2056 36.0957C22.2056 35.7617 22.4517 35.5449 22.7916 35.5449H27.274C27.7662 35.5449 28.0767 35.8262 28.0767 36.3008C28.0767 36.5469 27.9947 36.752 27.813 37.1094L24.4088 43.7305C24.2681 44.0059 24.1041 44.1113 23.817 44.1113Z" fill="white"/>
</g>
<defs>
<filter id="filter0_d_7434_2178" x="-1" y="0.5" width="49" height="50" filterUnits="userSpaceOnUse" color-interpolation-filters="sRGB">
<feFlood flood-opacity="0" result="BackgroundImageFix"/>
<feColorMatrix in="SourceAlpha" type="matrix" values="0 0 0 0 0 0 0 0 0 0 0 0 0 0 0 0 0 0 127 0" result="hardAlpha"/>
<feOffset dx="1" dy="1.5"/>
<feGaussianBlur stdDeviation="1"/>
<feComposite in2="hardAlpha" operator="out"/>
<feColorMatrix type="matrix" values="0 0 0 0 0 0 0 0 0 0 0 0 0 0 0 0 0 0 0.45 0"/>
<feBlend mode="normal" in2="BackgroundImageFix" result="effect1_dropShadow_7434_2178"/>
<feBlend mode="normal" in="SourceGraphic" in2="effect1_dropShadow_7434_2178" result="shape"/>
</filter>
</defs>
</svg>
