<svg width="45" height="48" viewBox="0 0 45 48" fill="none" xmlns="http://www.w3.org/2000/svg">
<g filter="url(#filter0_d_7434_2174)">
<path d="M11.5 5.98512C11.5 4.88877 12.3954 4 13.5 4H31.5C32.6046 4 33.5 4.88877 33.5 5.98512V27.0058C33.5 27.7891 32.6289 28.2637 31.9631 27.8432L23.0369 22.2051C22.7093 21.9982 22.2907 21.9982 21.9631 22.2051L13.0369 27.8432C12.3712 28.2637 11.5 27.7891 11.5 27.0058V5.98512Z" fill="white"/>
<path d="M13.0282 44C12.6298 44 12.4071 43.7773 12.4071 43.4492C12.4071 43.1914 12.4833 43.0508 12.7704 42.7637L15.413 40.0918C16.5145 38.9668 16.7841 38.5332 16.7841 37.8594C16.7841 37.0566 16.163 36.4707 15.3134 36.4707C14.4813 36.4707 13.9071 36.8984 13.6141 37.7246C13.497 37.9883 13.3446 38.1465 13.0223 38.1465C12.6532 38.1465 12.4423 37.918 12.4423 37.5898C12.4423 37.4902 12.454 37.4023 12.4774 37.3145C12.6591 36.4238 13.6376 35.3867 15.3192 35.3867C16.9364 35.3867 18.079 36.3828 18.079 37.7773C18.079 38.7383 17.6278 39.418 16.204 40.8418L14.1884 42.8633V42.8926H17.6981C18.0555 42.8926 18.2782 43.1152 18.2782 43.4492C18.2782 43.7773 18.0555 44 17.6981 44H13.0282ZM22.3418 44.1582C20.3027 44.1582 19.1016 42.459 19.1016 39.7637C19.1016 37.0859 20.3203 35.3867 22.3418 35.3867C24.3633 35.3867 25.5703 37.0801 25.5703 39.7578C25.5703 42.4531 24.375 44.1582 22.3418 44.1582ZM22.3418 43.0566C23.5605 43.0566 24.2461 41.8145 24.2461 39.7637C24.2461 37.7422 23.5488 36.4883 22.3418 36.4883C21.1348 36.4883 20.4316 37.748 20.4316 39.7637C20.4316 41.8086 21.1172 43.0566 22.3418 43.0566ZM29.5695 44.1582C28.1808 44.1582 27.2374 43.6191 26.7687 42.7637C26.6515 42.5469 26.5988 42.3418 26.5988 42.1309C26.5988 41.7793 26.8214 41.5508 27.1905 41.5508C27.4718 41.5508 27.6359 41.6797 27.7706 41.9844C28.0577 42.6582 28.6085 43.0625 29.5753 43.0625C30.6007 43.0625 31.2921 42.4766 31.298 41.6562C31.3038 40.6895 30.6066 40.1504 29.4757 40.1504H28.9132C28.5792 40.1504 28.3683 39.9453 28.3683 39.6406C28.3683 39.3359 28.5792 39.1309 28.9132 39.1309H29.4405C30.4073 39.1309 31.0636 38.5566 31.0636 37.7715C31.0636 36.9863 30.5597 36.4648 29.5577 36.4648C28.7023 36.4648 28.2218 36.8223 27.9288 37.5254C27.7882 37.8652 27.6476 37.9883 27.337 37.9883C26.9679 37.9883 26.7687 37.7773 26.7687 37.4258C26.7687 37.1973 26.8155 37.0039 26.9269 36.7871C27.3488 35.9492 28.2687 35.3867 29.5577 35.3867C31.2804 35.3867 32.3409 36.3301 32.3409 37.5898C32.3409 38.6445 31.5968 39.3594 30.5597 39.5762V39.6055C31.8019 39.7168 32.6339 40.4727 32.6339 41.6562C32.6339 43.1445 31.3331 44.1582 29.5695 44.1582Z" fill="white"/>
</g>
<defs>
<filter id="filter0_d_7434_2174" x="-1" y="0.5" width="49" height="50" filterUnits="userSpaceOnUse" color-interpolation-filters="sRGB">
<feFlood flood-opacity="0" result="BackgroundImageFix"/>
<feColorMatrix in="SourceAlpha" type="matrix" values="0 0 0 0 0 0 0 0 0 0 0 0 0 0 0 0 0 0 127 0" result="hardAlpha"/>
<feOffset dx="1" dy="1.5"/>
<feGaussianBlur stdDeviation="1"/>
<feComposite in2="hardAlpha" operator="out"/>
<feColorMatrix type="matrix" values="0 0 0 0 0 0 0 0 0 0 0 0 0 0 0 0 0 0 0.45 0"/>
<feBlend mode="normal" in2="BackgroundImageFix" result="effect1_dropShadow_7434_2174"/>
<feBlend mode="normal" in="SourceGraphic" in2="effect1_dropShadow_7434_2174" result="shape"/>
</filter>
</defs>
</svg>
