<svg width="33" height="22" viewBox="0 0 33 22" fill="none" xmlns="http://www.w3.org/2000/svg">
<g clip-path="url(#clip0_2_71146)">
<path fill-rule="evenodd" clip-rule="evenodd" d="M0 0H47.025V1.69299H0V0ZM0 3.38594H47.025V5.07893H0V3.38594ZM0 6.76757H47.025V8.46482H0V6.76757ZM0 10.1535H47.025V11.8465H0V10.1535ZM0 13.5394H47.025V15.2324H0V13.5394ZM0 16.9211H47.025V18.6141H0V16.9211ZM0 20.307H47.025V22H0V20.307Z" fill="#BD3D44"/>
<path fill-rule="evenodd" clip-rule="evenodd" d="M0 1.69299H47.025V3.38594H0V1.69299ZM0 5.07888H47.025V6.76757H0V5.07888ZM0 8.46056H47.025V10.1535H0V8.46056ZM0 11.8465H47.025V13.5394H0V11.8465ZM0 15.2324H47.025V16.9254H0V15.2324ZM0 18.6141H47.025V20.3071H0V18.6141Z" fill="white"/>
<path fill-rule="evenodd" clip-rule="evenodd" d="M0 0H18.809V11.8465H0V0Z" fill="#192F5D"/>
<path fill-rule="evenodd" clip-rule="evenodd" d="M1.5662 0.50708L1.74022 0.975359H2.29132L1.84654 1.26328L2.01577 1.73592L1.5662 1.44373L1.12147 1.73161L1.29065 1.26328L0.841125 0.975359H1.40187L1.5662 0.50708ZM4.70347 0.50708L4.87264 0.975359H5.42854L4.97896 1.26328L5.14819 1.73592L4.70347 1.44373L4.25389 1.73161L4.42307 1.26328L3.97834 0.975359H4.52944L4.70347 0.50708ZM7.83589 0.50708L8.00991 0.975405H8.55617L8.11144 1.26333L8.28056 1.73596L7.83104 1.44378L7.38631 1.73166L7.55549 1.26333L7.10592 0.975405H7.66186L7.83589 0.50708ZM10.9732 0.50708L11.1423 0.975405H11.6982L11.2487 1.26333L11.4227 1.73596L10.9731 1.44378L10.5236 1.73166L10.6976 1.26333L10.248 0.975405H10.7991L10.9732 0.50708ZM14.1056 0.50708L14.2796 0.975405H14.8307L14.3859 1.26333L14.5551 1.73596L14.1055 1.44378L13.6608 1.73166L13.83 1.26333L13.3853 0.975405H13.9364L14.1056 0.50708ZM17.2428 0.50708L17.412 0.975405H17.9679L17.5183 1.26333L17.6924 1.73596L17.2428 1.44378L16.7932 1.73166L16.9672 1.26333L16.5177 0.975405H17.0736L17.2428 0.50708ZM3.13726 1.69293L3.30643 2.16134H3.86233L3.41275 2.44918L3.57714 2.91759L3.14205 2.62967L2.69253 2.91755L2.85201 2.44922L2.41698 2.1613H2.96808L3.13726 1.69293ZM6.26968 1.69293L6.4437 2.16134H6.99475L6.54518 2.44918L6.71925 2.91759L6.26963 2.62967L5.8201 2.91755L5.99413 2.44922L5.54455 2.1613H6.10045L6.26968 1.69293ZM9.40695 1.69293L9.57607 2.16134H10.132L9.68244 2.44918L9.85162 2.91759L9.40689 2.62967L8.95737 2.91755L9.12655 2.44927L8.68182 2.16134H9.23292L9.40695 1.69293ZM12.5394 1.69293L12.7134 2.16134H13.2644L12.8149 2.44918L12.9889 2.91759L12.5393 2.62967L12.0946 2.91755L12.2638 2.44922L11.8142 2.1613H12.375L12.5394 1.69293ZM15.6766 1.69293L15.8458 2.16134H16.4017L15.9521 2.44918L16.1213 2.91759L15.6766 2.62967L15.227 2.91755L15.3962 2.44922L14.9515 2.1613H15.5026L15.6766 1.69293ZM1.5662 2.87469L1.74022 3.35163H2.29132L1.84654 3.63951L2.01577 4.10788L1.5662 3.8157L1.12147 4.10788L1.29065 3.63521L0.841125 3.34737H1.40187L1.5662 2.87469ZM4.70347 2.87469L4.87264 3.34723H5.42854L4.97896 3.63511L5.14819 4.10353L4.70347 3.8113L4.25389 4.10348L4.42307 3.63085L3.97834 3.34297H4.52944L4.70347 2.87469ZM7.83589 2.87469L8.00991 3.34733H8.55617L8.11144 3.63521L8.28056 4.10362L7.83104 3.81139L7.38631 4.10358L7.55549 3.63094L7.10592 3.34306H7.66186L7.83589 2.87469ZM10.9732 2.87469L11.1423 3.34733H11.6982L11.2487 3.63521L11.4227 4.10362L10.9731 3.81139L10.5236 4.10358L10.6976 3.63094L10.248 3.34306H10.7991L10.9732 2.87469ZM14.1056 2.87469L14.2796 3.34733H14.8307L14.3859 3.63516L14.5551 4.10358L14.1055 3.81134L13.6608 4.10353L13.83 3.6309L13.3853 3.34302H13.9364L14.1056 2.87469ZM17.2428 2.87469L17.412 3.34733H17.9679L17.5183 3.63521L17.6924 4.10362L17.2428 3.81139L16.7932 4.10358L16.9672 3.63094L16.5177 3.34306H17.0736L17.2428 2.87469ZM3.13726 4.06058L3.30643 4.52895H3.86233L3.41275 4.81679L3.58198 5.28947L3.13726 4.99728L2.68768 5.28516L2.85686 4.81683L2.41213 4.52895H2.96328L3.13726 4.06058ZM6.26968 4.06058L6.4437 4.52895H6.99475L6.54518 4.81679L6.71925 5.28947L6.26963 4.99728L5.8201 5.28516L5.99413 4.81683L5.54455 4.52895H6.10045L6.26968 4.06058ZM9.40695 4.06058L9.57607 4.52895H10.132L9.68244 4.81679L9.85162 5.28947L9.40689 4.99728L8.95737 5.28516L9.12655 4.81683L8.68182 4.52895H9.23292L9.40695 4.06058ZM12.5394 4.06058L12.7134 4.52895H13.2644L12.8197 4.81679L12.9889 5.28947L12.5393 4.99728L12.0946 5.28516L12.2638 4.81683L11.8142 4.52895H12.375L12.5394 4.06058ZM15.6766 4.06058L15.8458 4.52895H16.4017L15.9521 4.81679L16.1213 5.28947L15.6766 4.99728L15.227 5.28516L15.3962 4.81683L14.9515 4.52895H15.5026L15.6766 4.06058ZM1.5662 5.24652L1.74022 5.71489H2.29132L1.84654 6.00273L2.01577 6.47541L1.5662 6.18322L1.12147 6.4711L1.29065 6.00277L0.841125 5.71489H1.40187L1.5662 5.24652ZM4.70347 5.24652L4.87264 5.71489H5.42854L4.97896 6.00273L5.14819 6.47114L4.70347 6.18322L4.25389 6.4711L4.42307 6.00277L3.97834 5.71489H4.52944L4.70347 5.24652ZM7.83589 5.24652L8.00991 5.71489H8.55617L8.11144 6.00273L8.28056 6.47541L7.83104 6.18322L7.38631 6.4711L7.55549 6.00277L7.10592 5.71489H7.66186L7.83589 5.24652ZM10.9732 5.24652L11.1423 5.71489H11.6982L11.2487 6.00273L11.4227 6.47541L10.9731 6.18322L10.5236 6.4711L10.6976 6.00277L10.248 5.71489H10.7991L10.9732 5.24652ZM14.1056 5.24652L14.2796 5.71489H14.8307L14.3859 6.00273L14.5551 6.47541L14.1055 6.18322L13.6608 6.4711L13.83 6.00277L13.3853 5.71489H13.9364L14.1056 5.24652ZM17.2428 5.24652L17.412 5.71489H17.9679L17.5183 6.00273L17.6924 6.47541L17.2428 6.18322L16.7932 6.4711L16.9672 6.00277L16.5177 5.71489H17.0736L17.2428 5.24652ZM3.13726 6.43246L3.30643 6.90083H3.86233L3.41275 7.18866L3.58198 7.65708L3.13726 7.36489L2.68768 7.65708L2.85686 7.1844L2.41213 6.89652H2.96328L3.13726 6.43246ZM6.26968 6.43246L6.4437 6.90083H6.99475L6.54518 7.18866L6.71925 7.65708L6.26963 7.36489L5.8201 7.65708L5.99413 7.1844L5.54455 6.89652H6.10045L6.26968 6.43246ZM9.40695 6.43246L9.57607 6.90083H10.132L9.68244 7.18866L9.85162 7.65708L9.40689 7.36489L8.95737 7.65708L9.12655 7.1844L8.68182 6.89652H9.23292L9.40695 6.43246ZM12.5394 6.43246L12.7134 6.90083H13.2644L12.8197 7.18866L12.9889 7.65708L12.5393 7.36489L12.0946 7.65708L12.2638 7.1844L11.8142 6.89652H12.375L12.5394 6.43246ZM15.6766 6.43246L15.8458 6.90083H16.4017L15.9521 7.18866L16.1213 7.65708L15.6766 7.36489L15.227 7.65708L15.3962 7.1844L14.9515 6.89652H15.5026L15.6766 6.43246ZM1.5662 7.61409L1.74022 8.08677H2.29132L1.84654 8.3746L2.01577 8.83871L1.5662 8.55083L1.12147 8.83866L1.29065 8.37034L0.841125 8.08246H1.40187L1.5662 7.61409ZM4.70347 7.61409L4.87264 8.08677H5.42854L4.97896 8.3746L5.15304 8.83871L4.70341 8.55083L4.25389 8.83866L4.42792 8.37034L3.97834 8.08246H4.52944L4.70347 7.61409ZM7.83589 7.61409L8.00991 8.08677H8.55617L8.11144 8.3746L8.28056 8.83871L7.83104 8.55083L7.38631 8.83866L7.55549 8.37034L7.10592 8.08246H7.66186L7.83589 7.61409ZM10.9732 7.61409L11.1423 8.08677H11.6982L11.2487 8.3746L11.4227 8.83871L10.9731 8.55083L10.5236 8.83866L10.6976 8.37034L10.248 8.08246H10.7991L10.9732 7.61409ZM14.1056 7.61409L14.2796 8.08677H14.8307L14.3859 8.3746L14.5551 8.83871L14.1055 8.55083L13.6608 8.83866L13.83 8.37034L13.3853 8.08246H13.9364L14.1056 7.61409ZM17.2428 7.61409L17.412 8.08677H17.9679L17.5183 8.3746L17.6924 8.83871L17.2428 8.55083L16.7932 8.83866L16.9672 8.37034L16.5177 8.08246H17.0736L17.2428 7.61409ZM3.13726 8.80003L3.30643 9.2684H3.86233L3.41275 9.55628L3.58198 10.029L3.13726 9.73677L2.68768 10.0246L2.85686 9.55628L2.41213 9.2684H2.96328L3.13726 8.80003ZM6.26968 8.80003L6.4437 9.2684H6.99475L6.54518 9.55628L6.71925 10.029L6.26963 9.73677L5.8201 10.0246L5.99413 9.55628L5.54455 9.2684H6.10045L6.26968 8.80003ZM9.40695 8.80003L9.57607 9.2684H10.132L9.68244 9.55628L9.85162 10.029L9.40689 9.73677L8.95737 10.0246L9.12655 9.55628L8.68182 9.2684H9.23292L9.40695 8.80003ZM12.5394 8.80003L12.7134 9.2684H13.2644L12.8197 9.55628L12.9889 10.029L12.5393 9.73677L12.0946 10.0246L12.2638 9.55628L11.8142 9.2684H12.375L12.5394 8.80003ZM15.6766 8.80003L15.8458 9.2684H16.4017L15.9521 9.55628L16.1213 10.029L15.6766 9.73677L15.227 10.0246L15.3962 9.55628L14.9515 9.2684H15.5026L15.6766 8.80003ZM1.5662 9.98596L1.74022 10.4543H2.29132L1.84654 10.7422L2.01577 11.2106L1.5662 10.9227L1.12147 11.2105L1.29065 10.7379L0.841125 10.45H1.40187L1.5662 9.98596ZM4.70347 9.98596L4.87264 10.4543H5.42854L4.97896 10.7422L5.15304 11.2106L4.70341 10.9227L4.25389 11.2105L4.42792 10.7379L3.97834 10.45H4.52944L4.70347 9.98596ZM7.83589 9.98596L8.00991 10.4543H8.55617L8.12108 10.7422L8.29026 11.2106L7.84068 10.9227L7.39596 11.2105L7.56518 10.7379L7.11561 10.45H7.67151L7.83589 9.98596ZM10.9732 9.98596L11.1423 10.4543H11.6982L11.2487 10.7422L11.4227 11.2106L10.9731 10.9227L10.5236 11.2105L10.6976 10.7379L10.248 10.45H10.7991L10.9732 9.98596ZM14.1056 9.98596L14.2796 10.4543H14.8307L14.3859 10.7422L14.5551 11.2106L14.1055 10.9227L13.6608 11.2105L13.83 10.7379L13.3853 10.45H13.9364L14.1056 9.98596ZM17.2428 9.98596L17.412 10.4543H17.9679L17.5183 10.7422L17.6924 11.2106L17.2428 10.9227L16.7932 11.2105L16.9672 10.7379L16.5177 10.45H17.0736L17.2428 9.98596Z" fill="white"/>
</g>
<defs>
<clipPath id="clip0_2_71146">
<rect width="33" height="22" fill="white"/>
</clipPath>
</defs>
</svg>
