<svg width="24" height="24" viewBox="0 0 24 24" fill="none" xmlns="http://www.w3.org/2000/svg">
<path d="M3.5058 19.0357C3.5058 19.0357 5.96528 15.8958 12.0339 15.8958C18.1025 15.8958 20.5621 19.0357 20.5621 19.0357M12.0339 1C5.94004 1 1 5.94004 1 12.0339C1 18.1277 5.94004 23.0678 12.0339 23.0678C18.1277 23.0678 23.0678 18.1277 23.0678 12.0339C23.0678 5.94004 18.1277 1 12.0339 1ZM12.0339 12.0339C13.8621 12.0339 15.3441 10.5519 15.3441 8.72373C15.3441 6.89558 13.8621 5.41356 12.0339 5.41356C10.2057 5.41356 8.72373 6.89558 8.72373 8.72373C8.72373 10.5519 10.2057 12.0339 12.0339 12.0339Z" stroke-width="1.65509" stroke-linecap="round" stroke-linejoin="round"/>
</svg>
